<?xml version="1.0" standalone="no"?>
<!DOCTYPE svg PUBLIC "-//W3C//DTD SVG 20010904//EN" "http://www.w3.org/TR/2001/REC-SVG-20010904/DTD/svg10.dtd">
<svg version="1.0" xmlns="http://www.w3.org/2000/svg" width="200.000000pt" height="200.000000pt"
  viewBox="0 0 200.000000 200.000000" preserveAspectRatio="xMidYMid meet">
  <metadata>
    Created by potrace 1.14, written by Peter Selinger 2001-2017
  </metadata>
  <g transform="translate(0.000000,200.000000) scale(0.100000,-0.100000)" fill="#000000" stroke="none">
    <path d="M382 1367 c-188 -188 -342 -350 -342 -359 0 -9 145 -161 322 -338
178 -178 322 -327 320 -332 -1 -4 9 -13 22 -18 13 -5 26 -15 29 -22 2 -8 149
132 361 345 l358 357 -355 355 c-195 195 -358 355 -363 355 -5 0 -163 -154
-352 -343z m420 -87 l60 -60 -36 -40 c-20 -22 -36 -38 -36 -36 0 3 -22 -19
-49 -47 -27 -29 -48 -56 -48 -61 1 -5 -8 -13 -21 -17 -23 -9 -23 -9 17 -49 23
-23 41 -46 41 -52 0 -6 3 -9 6 -5 8 8 44 -25 44 -40 0 -7 4 -13 8 -13 18 0 61
-46 58 -63 -3 -20 -95 -117 -111 -117 -12 0 -325 308 -325 319 0 4 25 32 55
63 30 31 55 59 55 63 0 10 27 35 37 35 12 0 53 47 46 53 -2 3 4 8 14 11 10 3
23 16 28 28 6 13 16 23 24 23 8 0 19 9 25 19 16 29 30 45 39 46 4 0 35 -27 69
-60z" />
    <path d="M1226 1686 c-24 -38 -88 -96 -97 -90 -5 3 -9 -4 -9 -15 0 -12 19 -41
43 -64 24 -24 41 -49 39 -56 -2 -6 3 -11 11 -11 18 0 87 -69 87 -87 0 -8 5
-11 11 -8 6 4 13 -2 16 -14 3 -11 9 -19 13 -16 4 3 13 -2 20 -10 7 -8 10 -15
6 -15 -10 0 29 -36 47 -43 9 -3 17 -11 17 -17 0 -6 50 -60 110 -120 61 -59
110 -113 110 -119 0 -7 -119 -131 -265 -277 -146 -146 -265 -272 -265 -281 0
-9 31 -46 69 -84 l69 -69 351 351 c193 193 351 354 351 359 0 4 -33 41 -73 81
-40 41 -73 78 -74 84 0 5 -13 17 -29 26 -16 8 -30 25 -32 37 -2 12 -16 26 -33
34 -16 7 -29 18 -29 25 0 16 -41 44 -53 36 -6 -4 -7 -1 -2 6 8 13 -31 61 -49
61 -6 0 -16 10 -21 23 -6 12 -20 26 -32 32 -12 5 -24 18 -27 28 -2 10 -14 21
-25 24 -12 3 -21 11 -21 17 0 18 -183 196 -202 196 -8 0 -23 -11 -32 -24z" />
  </g>
</svg>